<svg width="13" height="13" viewBox="0 0 13 13" fill="none" xmlns="http://www.w3.org/2000/svg">
<path d="M7.69183 1.55737C7.02741 1.55737 6.3902 1.82131 5.92038 2.29113C5.45056 2.76095 5.18662 3.39816 5.18662 4.06258V5.45737H3.846C3.77883 5.45737 3.72412 5.51154 3.72412 5.57925V7.42091C3.72412 7.48808 3.77829 7.54279 3.846 7.54279H5.18662V11.3209C5.18662 11.3881 5.24079 11.4428 5.3085 11.4428H7.15016C7.21733 11.4428 7.27204 11.3886 7.27204 11.3209V7.54279H8.62458C8.68037 7.54279 8.72912 7.50487 8.74266 7.45071L9.20308 5.60904C9.20761 5.59107 9.20798 5.5723 9.20417 5.55416C9.20035 5.53603 9.19245 5.519 9.18107 5.50438C9.16968 5.48975 9.15511 5.47792 9.13846 5.46977C9.12182 5.46163 9.10353 5.45739 9.085 5.45737H7.27204V4.06258C7.27204 4.00745 7.2829 3.95287 7.30399 3.90193C7.32509 3.851 7.35601 3.80473 7.39499 3.76574C7.43397 3.72676 7.48025 3.69584 7.53118 3.67474C7.58211 3.65365 7.6367 3.64279 7.69183 3.64279H9.10016C9.16733 3.64279 9.22204 3.58862 9.22204 3.52091V1.67925C9.22204 1.61208 9.16787 1.55737 9.10016 1.55737H7.69183Z" fill="black"/>
</svg>
