<svg width="13" height="13" viewBox="0 0 13 13" fill="none" xmlns="http://www.w3.org/2000/svg">
<path d="M9.98855 1.65747H3.01188C2.65304 1.65847 2.30919 1.80146 2.05545 2.0552C1.80171 2.30894 1.65872 2.6528 1.65771 3.01164V9.98831C1.65872 10.3471 1.80171 10.691 2.05545 10.9447C2.30919 11.1985 2.65304 11.3415 3.01188 11.3425H9.98855C10.3477 11.3425 10.6921 11.1998 10.9461 10.9458C11.2 10.6919 11.3427 10.3475 11.3427 9.98831V3.01164C11.3427 2.65249 11.2 2.30805 10.9461 2.0541C10.6921 1.80014 10.3477 1.65747 9.98855 1.65747ZM10.801 9.98831C10.7996 10.2034 10.7136 10.4092 10.5615 10.5613C10.4094 10.7133 10.2036 10.7994 9.98855 10.8008H3.01188C2.79683 10.7994 2.59099 10.7133 2.43893 10.5613C2.28686 10.4092 2.2008 10.2034 2.19938 9.98831V3.01164C2.2008 2.79659 2.28686 2.59075 2.43893 2.43868C2.59099 2.28662 2.79683 2.20056 3.01188 2.19914H9.98855C10.2036 2.20056 10.4094 2.28662 10.5615 2.43868C10.7136 2.59075 10.7996 2.79659 10.801 3.01164V9.98831Z" fill="black"/>
<path d="M3.45361 5.82194C3.45361 5.67828 3.51068 5.54051 3.61226 5.43892C3.71385 5.33734 3.85162 5.28027 3.99528 5.28027C4.13894 5.28027 4.27671 5.33734 4.3783 5.43892C4.47988 5.54051 4.53695 5.67828 4.53695 5.82194V9.34277C4.53695 9.48643 4.47988 9.62421 4.3783 9.72579C4.27671 9.82737 4.13894 9.88444 3.99528 9.88444C3.85162 9.88444 3.71385 9.82737 3.61226 9.72579C3.51068 9.62421 3.45361 9.48643 3.45361 9.34277V5.82194Z" fill="black"/>
<path d="M3.99528 4.19466C4.29443 4.19466 4.53695 3.95215 4.53695 3.65299C4.53695 3.35384 4.29443 3.11133 3.99528 3.11133C3.69613 3.11133 3.45361 3.35384 3.45361 3.65299C3.45361 3.95215 3.69613 4.19466 3.99528 4.19466Z" fill="black"/>
<path d="M9.54418 7.24203V9.3437C9.54418 9.48736 9.48711 9.62513 9.38553 9.72671C9.28395 9.8283 9.14617 9.88536 9.00251 9.88536C8.85886 9.88536 8.72108 9.8283 8.6195 9.72671C8.51792 9.62513 8.46085 9.48736 8.46085 9.3437V7.24203C8.46085 7.01002 8.36868 6.78751 8.20463 6.62346C8.04057 6.4594 7.81806 6.36724 7.58606 6.36724C7.35405 6.36724 7.13154 6.4594 6.96748 6.62346C6.80343 6.78751 6.71126 7.01002 6.71126 7.24203V9.3437C6.71126 9.48736 6.65419 9.62513 6.55261 9.72671C6.45103 9.8283 6.31326 9.88536 6.1696 9.88536C6.02594 9.88536 5.88816 9.8283 5.78658 9.72671C5.685 9.62513 5.62793 9.48736 5.62793 9.3437V5.82286C5.63016 5.6799 5.68795 5.54342 5.78905 5.44232C5.89015 5.34122 6.02663 5.28343 6.1696 5.2812C6.26134 5.27868 6.35206 5.30102 6.43215 5.34583C6.51225 5.39065 6.57874 5.45628 6.6246 5.53578C6.92244 5.36697 7.25938 5.27932 7.60173 5.28159C7.94408 5.28386 8.27983 5.37597 8.57541 5.54871C8.87099 5.72145 9.11604 5.96877 9.28605 6.26593C9.45606 6.56309 9.54507 6.89968 9.54418 7.24203Z" fill="black"/>
</svg>
