<svg width="13" height="13" viewBox="0 0 13 13" fill="none" xmlns="http://www.w3.org/2000/svg">
<g clip-path="url(#clip0_37_464)">
<path d="M6.50016 8.66658C7.0748 8.66658 7.6259 8.43831 8.03223 8.03198C8.43856 7.62565 8.66683 7.07455 8.66683 6.49992C8.66683 5.92528 8.43856 5.37418 8.03223 4.96785C7.6259 4.56152 7.0748 4.33325 6.50016 4.33325C5.92553 4.33325 5.37443 4.56152 4.9681 4.96785C4.56177 5.37418 4.3335 5.92528 4.3335 6.49992C4.3335 7.07455 4.56177 7.62565 4.9681 8.03198C5.37443 8.43831 5.92553 8.66658 6.50016 8.66658Z" stroke="black" stroke-width="1.5" stroke-linecap="round" stroke-linejoin="round"/>
<path d="M1.625 8.66667V4.33333C1.625 3.61504 1.91034 2.92616 2.41825 2.41825C2.92616 1.91034 3.61504 1.625 4.33333 1.625H8.66667C9.38496 1.625 10.0738 1.91034 10.5817 2.41825C11.0897 2.92616 11.375 3.61504 11.375 4.33333V8.66667C11.375 9.38496 11.0897 10.0738 10.5817 10.5817C10.0738 11.0897 9.38496 11.375 8.66667 11.375H4.33333C3.61504 11.375 2.92616 11.0897 2.41825 10.5817C1.91034 10.0738 1.625 9.38496 1.625 8.66667Z" stroke="black" stroke-width="1.5"/>
<path d="M9.479 3.53367L9.49119 3.52026" stroke="black" stroke-width="1.5" stroke-linecap="round" stroke-linejoin="round"/>
</g>
<defs>
<clipPath id="clip0_37_464">
<rect width="13" height="13" fill="white"/>
</clipPath>
</defs>
</svg>
