<svg xmlns="http://www.w3.org/2000/svg" xmlns:xlink="http://www.w3.org/1999/xlink" width="500" zoomAndPan="magnify" viewBox="0 0 375 374.999991" height="500" preserveAspectRatio="xMidYMid meet" version="1.2"><defs><clipPath id="a72edcb2dd"><path d="M 237.230469 166.140625 L 250.640625 166.140625 L 250.640625 182.566406 L 237.230469 182.566406 Z M 237.230469 166.140625 "/></clipPath><clipPath id="70c0358632"><path d="M 243.949219 182.566406 L 237.253906 166.140625 L 250.640625 166.140625 Z M 243.949219 182.566406 "/></clipPath></defs><g id="5de02bdfe6"><rect x="0" width="375" y="0" height="374.999991" style="fill:#ffffff;fill-opacity:1;stroke:none;"/><rect x="0" width="375" y="0" height="374.999991" style="fill:#ffffff;fill-opacity:1;stroke:none;"/><g style="fill:#000000;fill-opacity:1;"><g transform="translate(40.495563, 218.554417)"><path style="stroke:none" d="M 82.265625 -58.875 C 89.484375 -58.875 94.785156 -56.757812 98.171875 -52.53125 C 101.554688 -48.3125 103.25 -42.476562 103.25 -35.03125 L 103.25 0 L 86.375 0 L 86.375 -32.625 C 86.375 -41 82.945312 -45.1875 76.09375 -45.1875 C 71.84375 -45.1875 68.628906 -43.660156 66.453125 -40.609375 C 64.285156 -37.566406 63.203125 -32.664062 63.203125 -25.90625 L 63.203125 0 L 46.671875 0 L 46.671875 -32.625 C 46.671875 -41 43.242188 -45.1875 36.390625 -45.1875 C 32.128906 -45.1875 28.914062 -43.660156 26.75 -40.609375 C 24.582031 -37.566406 23.5 -32.664062 23.5 -25.90625 L 23.5 0 L 6.625 0 L 6.625 -57.046875 L 23.5 -57.046875 L 23.5 -46.671875 C 25.25 -50.316406 27.703125 -53.257812 30.859375 -55.5 C 34.015625 -57.75 38.066406 -58.875 43.015625 -58.875 C 48.109375 -58.875 52.210938 -57.734375 55.328125 -55.453125 C 58.453125 -53.171875 60.625 -49.898438 61.84375 -45.640625 C 63.59375 -49.597656 66.101562 -52.789062 69.375 -55.21875 C 72.644531 -57.65625 76.941406 -58.875 82.265625 -58.875 Z M 82.265625 -58.875 "/></g></g><g style="fill:#000000;fill-opacity:1;"><g transform="translate(144.653241, 218.554417)"><path style="stroke:none" d="M 47.578125 -57.046875 L 64.46875 -57.046875 L 64.46875 0 L 47.578125 0 L 47.578125 -10.953125 C 45.828125 -7.148438 43.316406 -4.066406 40.046875 -1.703125 C 36.773438 0.648438 32.550781 1.828125 27.375 1.828125 C 19.925781 1.828125 14.46875 -0.300781 11 -4.5625 C 7.539062 -8.820312 5.8125 -14.679688 5.8125 -22.140625 L 5.8125 -57.046875 L 22.703125 -57.046875 L 22.703125 -24.640625 C 22.703125 -20.148438 23.671875 -16.914062 25.609375 -14.9375 C 27.554688 -12.96875 30.316406 -11.984375 33.890625 -11.984375 C 38.148438 -11.984375 41.492188 -13.5625 43.921875 -16.71875 C 46.359375 -19.875 47.578125 -24.679688 47.578125 -31.140625 Z M 47.578125 -57.046875 "/></g></g><g style="fill:#000000;fill-opacity:1;"><g transform="translate(210.59283, 218.554417)"><path style="stroke:none" d="M 48.484375 -57.046875 L 64.578125 -57.046875 L 44.71875 0 L 21 0 L 1.140625 -57.046875 L 18.375 -57.046875 L 33.421875 -13.125 Z M 48.484375 -57.046875 "/></g></g><g style="fill:#000000;fill-opacity:1;"><g transform="translate(268.432175, 218.554417)"><path style="stroke:none" d="M 23.953125 1.484375 C 18.171875 1.484375 13.566406 -0.015625 10.140625 -3.015625 C 6.722656 -6.023438 5.015625 -10.078125 5.015625 -15.171875 C 5.015625 -18.210938 5.546875 -20.894531 6.609375 -23.21875 C 7.679688 -25.539062 9.582031 -27.5 12.3125 -29.09375 C 15.050781 -30.6875 18.859375 -31.90625 23.734375 -32.75 L 37.1875 -35.03125 C 39.851562 -35.488281 41.695312 -36.132812 42.71875 -36.96875 C 43.75 -37.800781 44.265625 -39.054688 44.265625 -40.734375 C 44.265625 -42.710938 43.5625 -44.304688 42.15625 -45.515625 C 40.75 -46.734375 38.144531 -47.34375 34.34375 -47.34375 C 26.8125 -47.34375 22.929688 -44.378906 22.703125 -38.453125 L 6.15625 -38.453125 C 6.382812 -44.535156 8.914062 -49.476562 13.75 -53.28125 C 18.582031 -57.082031 25.332031 -58.984375 34 -58.984375 C 42.664062 -58.984375 49.128906 -57.253906 53.390625 -53.796875 C 57.648438 -50.335938 59.78125 -45.5625 59.78125 -39.46875 L 59.78125 -14.828125 C 59.78125 -12.171875 59.851562 -9.644531 60 -7.25 C 60.15625 -4.851562 60.390625 -2.4375 60.703125 0 L 45.984375 0 C 45.671875 -1.90625 45.4375 -3.828125 45.28125 -5.765625 C 45.132812 -7.703125 45.0625 -9.847656 45.0625 -12.203125 C 43.769531 -8.253906 41.394531 -4.984375 37.9375 -2.390625 C 34.476562 0.191406 29.816406 1.484375 23.953125 1.484375 Z M 29.671875 -10.046875 C 34.148438 -10.046875 37.703125 -11.566406 40.328125 -14.609375 C 42.953125 -17.648438 44.265625 -21.832031 44.265625 -27.15625 L 44.265625 -29.671875 C 42.816406 -28.679688 41.332031 -27.914062 39.8125 -27.375 C 38.289062 -26.84375 36.65625 -26.390625 34.90625 -26.015625 L 30.125 -24.875 C 27.082031 -24.113281 24.910156 -23.140625 23.609375 -21.953125 C 22.316406 -20.773438 21.671875 -19.085938 21.671875 -16.890625 C 21.671875 -14.609375 22.429688 -12.894531 23.953125 -11.75 C 25.472656 -10.613281 27.378906 -10.046875 29.671875 -10.046875 Z M 29.671875 -10.046875 "/></g></g><g clip-rule="nonzero" clip-path="url(#a72edcb2dd)"><g clip-rule="nonzero" clip-path="url(#70c0358632)"><path style=" stroke:none;fill-rule:nonzero;fill:#f74b02;fill-opacity:1;" d="M 250.640625 182.566406 L 237.277344 182.566406 L 237.277344 166.140625 L 250.640625 166.140625 Z M 250.640625 182.566406 "/></g></g></g></svg>